<svg width="839" height="498" viewBox="0 0 839 498" fill="none" xmlns="http://www.w3.org/2000/svg">
<g clip-path="url(#clip0_1_8298)">
<path d="M193.365 465.357L206.839 461.079C208.518 453.842 208.407 446.304 206.515 439.12C201.101 451.166 185.22 454.117 176.171 463.731C173.371 466.751 171.287 470.363 170.072 474.299C168.857 478.235 168.543 482.394 169.153 486.468L166.318 496.092C172.939 495.526 179.358 493.53 185.134 490.242C190.91 486.954 195.905 482.452 199.775 477.046C201.916 473.992 203.664 470.68 204.978 467.188C199.232 466.613 193.365 465.357 193.365 465.357Z" fill="#F2F2F2"/>
<path d="M670.871 465.357L657.397 461.079C655.718 453.842 655.829 446.304 657.721 439.12C663.135 451.166 679.017 454.117 688.066 463.731C690.865 466.751 692.949 470.363 694.164 474.299C695.379 478.235 695.693 482.394 695.083 486.468L697.918 496.092C691.297 495.526 684.878 493.53 679.102 490.242C673.326 486.954 668.331 482.452 664.461 477.046C662.32 473.992 660.572 470.68 659.258 467.188C665.004 466.613 670.871 465.357 670.871 465.357Z" fill="#F2F2F2"/>
<path d="M178.967 447.561L189.121 437.719C187.399 430.492 183.94 423.795 179.044 418.209C179.567 431.406 166.667 441.136 162.853 453.78C161.693 457.733 161.437 461.896 162.104 465.961C162.771 470.026 164.343 473.889 166.704 477.263L168.456 487.142C174.129 483.68 178.986 479.029 182.69 473.508C186.395 467.987 188.859 461.728 189.914 455.162C190.469 451.473 190.557 447.728 190.178 444.017C184.778 446.066 178.967 447.561 178.967 447.561Z" fill="#F2F2F2"/>
<path d="M206.112 264.313C205.003 264.461 203.875 264.365 202.807 264.03C201.739 263.695 200.758 263.13 199.931 262.375C199.105 261.619 198.455 260.692 198.026 259.657C197.597 258.623 197.399 257.507 197.448 256.388L148.506 206.692L162.169 197.174L205.981 249.016C207.853 249.222 209.586 250.108 210.849 251.507C212.113 252.906 212.819 254.72 212.836 256.606C212.852 258.491 212.177 260.317 210.937 261.737C209.698 263.158 207.982 264.074 206.112 264.313Z" fill="#FFB6B6"/>
<path d="M133.45 185.197C133.45 185.197 129.982 187.277 135.755 193.613C140.377 198.685 160.546 223.072 168.596 228.163C168.159 229.426 168.154 230.797 168.582 232.063C169.01 233.328 169.847 234.415 170.96 235.152L183.337 219.694C182.63 215.262 179.644 215.489 177.967 216.027L170.201 206.367L152.606 176.831L135.931 183.648L133.45 185.197Z" fill="#FF9EDD"/>
<path d="M94.7988 481.305H104.026L108.417 445.689H94.7988V481.305Z" fill="#FFB6B6"/>
<path d="M91.7879 474.981L106.529 474.1V480.42L120.543 490.107C121.235 490.585 121.757 491.272 122.031 492.068C122.305 492.864 122.318 493.727 122.068 494.53C121.818 495.334 121.317 496.037 120.64 496.535C119.962 497.034 119.143 497.303 118.302 497.303H100.752L97.7271 491.052L96.546 497.303H89.9292L91.7879 474.981Z" fill="#2F2E41"/>
<path d="M146.626 481.305H155.853L160.245 445.689H146.626V481.305Z" fill="#FFB6B6"/>
<path d="M143.615 474.981L158.356 474.1V480.42L172.371 490.107C173.063 490.585 173.584 491.272 173.859 492.068C174.133 492.864 174.146 493.727 173.896 494.53C173.645 495.334 173.145 496.037 172.467 496.535C171.79 497.034 170.97 497.303 170.129 497.303H152.58L149.555 491.052L148.374 497.303H141.757L143.615 474.981Z" fill="#2F2E41"/>
<path d="M90.8183 450.592H90.9186L92.6931 392.682C91.5448 390.465 90.962 387.999 90.9966 385.502C91.0312 383.005 91.6822 380.556 92.8916 378.372L93.1457 377.912L92.487 374.856C91.6409 370.93 92.0292 366.839 93.5984 363.142L95.2538 309.123C89.3397 270.766 117.525 245.75 117.525 245.75L112.374 224.067L163.366 219.048L159.746 245.75L168.811 276.917C174.803 335.343 173.716 392.278 164.207 447.438L164.466 447.569C165.399 447.891 165.8 449.185 165.36 450.459C164.921 451.733 163.808 452.505 162.874 452.182L140.577 451.406C139.643 451.084 139.243 449.789 139.682 448.516C140.122 447.242 141.235 446.47 142.168 446.793L143.684 447.56L140.451 391.679L140.81 381.472L140.07 369.893L136.653 317.808L123.715 381.858L110.501 451.236C110.865 451.567 111.121 452 111.235 452.478C111.348 452.957 111.314 453.459 111.136 453.918C110.959 454.377 110.646 454.771 110.24 455.048C109.834 455.326 109.353 455.474 108.862 455.472H90.8183C90.1716 455.472 89.5514 455.215 89.0941 454.757C88.6368 454.3 88.3799 453.679 88.3799 453.032C88.3799 452.385 88.6368 451.764 89.0941 451.306C89.5514 450.849 90.1716 450.592 90.8183 450.592Z" fill="#2F2E41"/>
<path d="M579.79 235.671H264.419C253.815 235.659 243.649 231.438 236.152 223.935C228.654 216.431 224.436 206.258 224.424 195.646V59.9822C224.436 49.3903 228.638 39.2339 236.111 31.7335C243.584 24.2332 253.721 19.9991 264.305 19.957C313.283 6.38976 365.288 -0.320725 418.899 0.0117755C469.912 0.328348 524.075 7.03884 579.886 19.957C590.473 19.9947 600.614 24.2268 608.091 31.7276C615.568 39.2284 619.772 49.3872 619.785 59.9822V195.646C619.773 206.258 615.555 216.431 608.057 223.935C600.56 231.438 590.394 235.659 579.79 235.671ZM264.419 21.6301C254.259 21.6416 244.518 25.686 237.333 32.8759C230.149 40.0659 226.108 49.8142 226.096 59.9822V195.646C226.108 205.814 230.149 215.563 237.333 222.752C244.518 229.942 254.258 233.987 264.419 233.998H579.79C589.95 233.987 599.691 229.942 606.876 222.752C614.06 215.563 618.101 205.814 618.113 195.646V59.9822C618.101 49.8142 614.06 40.0659 606.876 32.8759C599.691 25.686 589.95 21.6417 579.79 21.6301L579.602 21.6085C464.11 -5.13626 361.085 -5.13993 264.642 21.5999L264.419 21.6301Z" fill="#E6E6E6"/>
<path d="M258.856 200.266C258.732 200.266 258.609 200.241 258.494 200.194C258.379 200.146 258.275 200.077 258.187 199.989C258.099 199.901 258.029 199.796 257.982 199.681C257.934 199.566 257.91 199.443 257.91 199.319V56.3094C257.91 56.0582 258.009 55.8173 258.187 55.6397C258.364 55.4621 258.605 55.3623 258.856 55.3623C259.107 55.3623 259.348 55.4621 259.525 55.6397C259.703 55.8173 259.802 56.0582 259.802 56.3094V199.319C259.802 199.443 259.778 199.566 259.73 199.681C259.683 199.796 259.613 199.901 259.525 199.989C259.437 200.077 259.333 200.146 259.218 200.194C259.103 200.241 258.98 200.266 258.856 200.266Z" fill="#E6E6E6"/>
<path d="M341.613 200.266C341.489 200.266 341.366 200.241 341.251 200.194C341.136 200.146 341.032 200.077 340.944 199.989C340.856 199.901 340.787 199.796 340.739 199.681C340.691 199.566 340.667 199.443 340.667 199.319V56.3094C340.667 56.0582 340.767 55.8173 340.944 55.6397C341.122 55.4621 341.362 55.3623 341.613 55.3623C341.864 55.3623 342.105 55.4621 342.283 55.6397C342.46 55.8173 342.56 56.0582 342.56 56.3094V199.319C342.56 199.443 342.535 199.566 342.488 199.681C342.44 199.796 342.37 199.901 342.283 199.989C342.195 200.077 342.09 200.146 341.976 200.194C341.861 200.241 341.738 200.266 341.613 200.266Z" fill="#E6E6E6"/>
<path d="M424.371 200.266C424.246 200.266 424.123 200.241 424.009 200.194C423.894 200.146 423.789 200.077 423.701 199.989C423.614 199.901 423.544 199.796 423.496 199.681C423.449 199.566 423.424 199.443 423.424 199.319V56.3094C423.424 56.0582 423.524 55.8173 423.702 55.6397C423.879 55.4621 424.12 55.3623 424.371 55.3623C424.622 55.3623 424.862 55.4621 425.04 55.6397C425.217 55.8173 425.317 56.0582 425.317 56.3094V199.319C425.317 199.443 425.293 199.566 425.245 199.681C425.198 199.796 425.128 199.901 425.04 199.989C424.952 200.077 424.848 200.146 424.733 200.194C424.618 200.241 424.495 200.266 424.371 200.266Z" fill="#E6E6E6"/>
<path d="M507.128 200.266C507.004 200.266 506.881 200.241 506.766 200.194C506.651 200.146 506.547 200.077 506.459 199.989C506.371 199.901 506.301 199.796 506.254 199.681C506.206 199.566 506.182 199.443 506.182 199.319V56.3094C506.182 56.0582 506.281 55.8173 506.459 55.6397C506.636 55.4621 506.877 55.3623 507.128 55.3623C507.379 55.3623 507.62 55.4621 507.797 55.6397C507.975 55.8173 508.074 56.0582 508.074 56.3094V199.319C508.074 199.443 508.05 199.566 508.002 199.681C507.955 199.796 507.885 199.901 507.797 199.989C507.709 200.077 507.605 200.146 507.49 200.194C507.375 200.241 507.252 200.266 507.128 200.266Z" fill="#E6E6E6"/>
<path d="M251.485 77.6202C251.485 77.4958 251.51 77.3726 251.557 77.2577C251.605 77.1428 251.675 77.0384 251.762 76.9504C251.85 76.8625 251.955 76.7927 252.07 76.7451C252.184 76.6975 252.307 76.6731 252.432 76.6731H591.777C591.901 76.6731 592.025 76.6976 592.139 76.7452C592.254 76.7928 592.358 76.8625 592.446 76.9505C592.534 77.0384 592.604 77.1429 592.652 77.2578C592.699 77.3727 592.724 77.4958 592.724 77.6202C592.724 77.7446 592.699 77.8677 592.652 77.9826C592.604 78.0975 592.534 78.2019 592.446 78.2899C592.358 78.3778 592.254 78.4476 592.139 78.4952C592.025 78.5428 591.901 78.5673 591.777 78.5673H252.432C252.307 78.5673 252.184 78.5428 252.07 78.4952C251.955 78.4477 251.85 78.3779 251.762 78.2899C251.675 78.202 251.605 78.0976 251.557 77.9827C251.51 77.8677 251.485 77.7446 251.485 77.6202Z" fill="#E6E6E6"/>
<path d="M251.485 183.027C251.485 182.903 251.51 182.78 251.557 182.665C251.605 182.55 251.675 182.445 251.762 182.358C251.85 182.27 251.955 182.2 252.07 182.152C252.184 182.105 252.307 182.08 252.432 182.08H591.777C592.028 182.08 592.269 182.18 592.446 182.358C592.624 182.535 592.724 182.776 592.724 183.027C592.724 183.278 592.624 183.519 592.446 183.697C592.269 183.875 592.028 183.974 591.777 183.974H252.432C252.307 183.974 252.184 183.95 252.07 183.902C251.955 183.855 251.85 183.785 251.762 183.697C251.675 183.609 251.605 183.505 251.557 183.39C251.51 183.275 251.485 183.152 251.485 183.027Z" fill="#E6E6E6"/>
<path d="M251.485 130.324C251.485 130.199 251.51 130.076 251.557 129.961C251.605 129.846 251.675 129.742 251.762 129.654C251.85 129.566 251.955 129.496 252.07 129.449C252.184 129.401 252.307 129.377 252.432 129.377H591.777C592.028 129.377 592.269 129.476 592.446 129.654C592.624 129.832 592.724 130.073 592.724 130.324C592.724 130.575 592.624 130.816 592.446 130.993C592.269 131.171 592.028 131.271 591.777 131.271H252.432C252.307 131.271 252.184 131.246 252.07 131.199C251.955 131.151 251.85 131.081 251.762 130.994C251.675 130.906 251.605 130.801 251.557 130.686C251.51 130.571 251.485 130.448 251.485 130.324Z" fill="#E6E6E6"/>
<path d="M587.246 200.266C587.37 200.266 587.493 200.241 587.608 200.194C587.723 200.146 587.827 200.077 587.915 199.989C588.003 199.901 588.073 199.796 588.12 199.681C588.168 199.566 588.192 199.443 588.192 199.319V56.3094C588.192 56.0582 588.092 55.8173 587.915 55.6397C587.737 55.4621 587.497 55.3623 587.246 55.3623C586.995 55.3623 586.754 55.4621 586.577 55.6397C586.399 55.8173 586.299 56.0582 586.299 56.3094V199.319C586.299 199.443 586.324 199.566 586.371 199.681C586.419 199.796 586.489 199.901 586.576 199.989C586.664 200.077 586.769 200.146 586.884 200.194C586.998 200.241 587.121 200.266 587.246 200.266Z" fill="#E6E6E6"/>
<path d="M310.476 123.907H286.64C285.329 123.906 284.062 123.432 283.072 122.571C282.083 121.711 281.436 120.522 281.252 119.223C279.78 108.384 279.78 97.3956 281.252 86.5569C281.434 85.2735 282.067 84.0969 283.038 83.2385C284.009 82.3801 285.253 81.8961 286.548 81.8733C294.048 78.5091 302.125 78.5095 310.558 81.8729C311.344 81.8833 312.117 82.0657 312.825 82.4071C313.532 82.7486 314.157 83.2409 314.654 83.8495C315.172 84.4826 315.543 85.2234 315.74 86.0179C315.936 86.8124 315.953 87.6408 315.79 88.4429C313.875 97.9788 313.875 107.801 315.79 117.337C315.953 118.139 315.936 118.967 315.74 119.762C315.543 120.556 315.172 121.297 314.654 121.93C314.148 122.549 313.51 123.048 312.788 123.39C312.065 123.732 311.275 123.909 310.476 123.907Z" fill="#FFC930"/>
<path d="M307.979 104.366H287.917C287.584 104.366 287.265 104.234 287.03 103.998C286.795 103.763 286.663 103.444 286.663 103.111C286.663 102.778 286.795 102.459 287.03 102.224C287.265 101.988 287.584 101.856 287.917 101.856H307.979C308.312 101.856 308.631 101.988 308.866 102.224C309.101 102.459 309.233 102.778 309.233 103.111C309.233 103.444 309.101 103.763 308.866 103.998C308.631 104.234 308.312 104.366 307.979 104.366Z" fill="white"/>
<path d="M307.979 114.405H287.917C287.584 114.405 287.265 114.272 287.03 114.037C286.795 113.802 286.663 113.483 286.663 113.15C286.663 112.817 286.795 112.498 287.03 112.262C287.265 112.027 287.584 111.895 287.917 111.895H307.979C308.312 111.895 308.631 112.027 308.866 112.262C309.101 112.498 309.233 112.817 309.233 113.15C309.233 113.483 309.101 113.802 308.866 114.037C308.631 114.272 308.312 114.405 307.979 114.405Z" fill="white"/>
<path d="M481.842 179.12H458.006C456.694 179.119 455.428 178.645 454.438 177.784C453.448 176.924 452.802 175.735 452.618 174.436C451.146 163.597 451.146 152.609 452.618 141.77C452.8 140.487 453.433 139.31 454.404 138.452C455.374 137.593 456.619 137.109 457.914 137.087C465.414 133.722 473.49 133.723 481.924 137.086C482.709 137.097 483.483 137.279 484.19 137.62C484.898 137.962 485.522 138.454 486.019 139.063C486.538 139.696 486.909 140.437 487.105 141.231C487.302 142.026 487.319 142.854 487.156 143.656C485.241 153.192 485.241 163.014 487.156 172.55C487.319 173.352 487.302 174.18 487.105 174.975C486.909 175.769 486.538 176.51 486.019 177.143C485.514 177.763 484.876 178.261 484.153 178.603C483.431 178.945 482.641 179.122 481.842 179.12Z" fill="#FF9EDD"/>
<path d="M479.346 149.54H459.283C458.951 149.54 458.632 149.408 458.397 149.173C458.161 148.937 458.029 148.618 458.029 148.285C458.029 147.953 458.161 147.633 458.397 147.398C458.632 147.163 458.951 147.031 459.283 147.031H479.346C479.678 147.031 479.997 147.163 480.232 147.398C480.467 147.633 480.599 147.953 480.599 148.285C480.599 148.618 480.467 148.937 480.232 149.173C479.997 149.408 479.678 149.54 479.346 149.54Z" fill="white"/>
<path d="M479.346 159.579H459.283C458.951 159.579 458.632 159.447 458.397 159.211C458.161 158.976 458.029 158.657 458.029 158.324C458.029 157.991 458.161 157.672 458.397 157.437C458.632 157.202 458.951 157.069 459.283 157.069H479.346C479.678 157.069 479.997 157.202 480.232 157.437C480.467 157.672 480.599 157.991 480.599 158.324C480.599 158.657 480.467 158.976 480.232 159.211C479.997 159.447 479.678 159.579 479.346 159.579Z" fill="white"/>
<path d="M554.568 123.907H530.732C529.421 123.906 528.154 123.432 527.164 122.571C526.174 121.711 525.528 120.522 525.344 119.223C523.872 108.384 523.872 97.3956 525.344 86.5569C525.526 85.2735 526.159 84.0969 527.13 83.2385C528.1 82.3801 529.345 81.8961 530.64 81.8733C538.14 78.5091 546.216 78.5095 554.65 81.8729C555.435 81.8833 556.209 82.0657 556.917 82.4071C557.624 82.7486 558.248 83.2409 558.745 83.8495C559.264 84.4826 559.635 85.2234 559.831 86.0179C560.028 86.8124 560.045 87.6408 559.882 88.4429C557.967 97.9788 557.967 107.801 559.882 117.337C560.045 118.139 560.028 118.967 559.831 119.762C559.635 120.556 559.264 121.297 558.745 121.93C558.24 122.549 557.602 123.048 556.88 123.39C556.157 123.732 555.367 123.909 554.568 123.907Z" fill="#FD6584"/>
<path d="M552.072 104.366H532.009C531.677 104.366 531.358 104.234 531.123 103.998C530.888 103.763 530.755 103.444 530.755 103.111C530.755 102.778 530.888 102.459 531.123 102.224C531.358 101.988 531.677 101.856 532.009 101.856H552.072C552.404 101.856 552.723 101.988 552.958 102.224C553.193 102.459 553.326 102.778 553.326 103.111C553.326 103.444 553.193 103.763 552.958 103.998C552.723 104.234 552.404 104.366 552.072 104.366Z" fill="white"/>
<path d="M552.072 114.405H532.009C531.677 114.405 531.358 114.272 531.123 114.037C530.888 113.802 530.755 113.483 530.755 113.15C530.755 112.817 530.888 112.498 531.123 112.262C531.358 112.027 531.677 111.895 532.009 111.895H552.072C552.404 111.895 552.723 112.027 552.958 112.262C553.193 112.498 553.326 112.817 553.326 113.15C553.326 113.483 553.193 113.802 552.958 114.037C552.723 114.272 552.404 114.405 552.072 114.405Z" fill="white"/>
<path d="M152.22 120.215C147.477 112.942 139.734 107.226 131.111 106.743C122.487 106.26 112.123 113.61 107.867 121.172C100.081 135.005 99.979 150.867 110.702 160.488C112.158 159.994 118.215 159.285 119.696 158.808L120.635 157.112L121.793 158.143C135.045 159.466 139.124 150.45 160.328 144.764C159.088 136.165 156.963 127.488 152.22 120.215Z" fill="#2F2E41"/>
<path d="M134.016 154.471C143.695 154.471 151.54 146.619 151.54 136.933C151.54 127.248 143.695 119.396 134.016 119.396C124.338 119.396 116.492 127.248 116.492 136.933C116.492 146.619 124.338 154.471 134.016 154.471Z" fill="#FFB7B7"/>
<path d="M153.434 169.518L143.406 163.497L123.35 161.49L105.624 170.524L105.801 198.12L117.047 226.742L160.858 235.779L165.97 210.625C165.97 210.625 179.006 193.102 164.967 183.066L153.434 169.518Z" fill="#FF9EDD"/>
<path d="M140.568 110.3C136.771 109.234 132.758 109.209 128.948 110.228C125.138 111.246 121.671 113.27 118.91 116.088C116.149 118.906 114.195 122.414 113.253 126.246C112.311 130.078 112.415 134.094 113.554 137.872C124.227 138.725 134.777 137.727 143.093 130.17L143.833 123.688L146.868 129.113C149.928 128.251 152.993 127.384 156.063 126.512C155.124 122.689 153.199 119.179 150.48 116.334C147.761 113.489 144.343 111.408 140.568 110.3Z" fill="#2F2E41"/>
<path d="M110.508 288.671C109.556 288.083 108.743 287.294 108.128 286.358C107.513 285.423 107.11 284.364 106.948 283.255C106.786 282.147 106.869 281.017 107.191 279.944C107.513 278.872 108.066 277.883 108.811 277.047L102.344 207.573L118.942 208.856L120.08 276.743C121.399 278.089 122.18 279.872 122.274 281.756C122.367 283.639 121.768 285.491 120.588 286.961C119.408 288.432 117.73 289.418 115.873 289.733C114.015 290.048 112.106 289.67 110.508 288.671Z" fill="#FFB6B6"/>
<path d="M106.238 170.8C106.238 170.8 102.237 170.214 102.7 178.776C103.071 185.631 101.308 227.88 104.321 236.921C103.184 237.621 102.313 238.68 101.844 239.931C101.375 241.182 101.336 242.553 101.731 243.829L121.09 239.7C123.345 235.82 122.878 231.837 121.239 231.192L121.335 218.794L125.614 177.927L109.138 171.172L106.238 170.8Z" fill="#FF9EDD"/>
<path d="M205.178 295.099C204.66 294.466 204.289 293.725 204.093 292.93C203.896 292.136 203.879 291.307 204.042 290.505C205.957 280.969 205.957 271.148 204.042 261.612C203.879 260.81 203.896 259.981 204.093 259.187C204.289 258.392 204.66 257.651 205.178 257.018C205.676 256.41 206.3 255.917 207.007 255.576C207.715 255.235 208.489 255.052 209.274 255.042C217.708 251.678 225.784 251.678 233.284 255.042C234.579 255.065 235.824 255.549 236.794 256.407C237.765 257.266 238.398 258.442 238.58 259.726C240.052 270.564 240.052 281.553 238.58 292.391C238.396 293.69 237.75 294.879 236.76 295.74C235.77 296.601 234.503 297.075 233.192 297.076H209.356C208.557 297.077 207.767 296.901 207.044 296.559C206.322 296.217 205.684 295.718 205.178 295.099Z" fill="#61CCFF"/>
<path d="M211.853 267.496H231.915C232.247 267.496 232.566 267.364 232.802 267.128C233.037 266.893 233.169 266.574 233.169 266.241C233.169 265.908 233.037 265.589 232.802 265.354C232.566 265.118 232.247 264.986 231.915 264.986H211.853C211.52 264.986 211.201 265.118 210.966 265.354C210.731 265.589 210.599 265.908 210.599 266.241C210.599 266.574 210.731 266.893 210.966 267.128C211.201 267.364 211.52 267.496 211.853 267.496Z" fill="white"/>
<path d="M211.853 277.535H231.915C232.247 277.535 232.566 277.402 232.802 277.167C233.037 276.932 233.169 276.613 233.169 276.28C233.169 275.947 233.037 275.628 232.802 275.392C232.566 275.157 232.247 275.025 231.915 275.025H211.853C211.52 275.025 211.201 275.157 210.966 275.392C210.731 275.628 210.599 275.947 210.599 276.28C210.599 276.613 210.731 276.932 210.966 277.167C211.201 277.402 211.52 277.535 211.853 277.535Z" fill="white"/>
<path d="M211.853 287.573H231.915C232.247 287.573 232.566 287.441 232.802 287.206C233.037 286.971 233.169 286.651 233.169 286.319C233.169 285.986 233.037 285.667 232.802 285.431C232.566 285.196 232.247 285.064 231.915 285.064H211.853C211.52 285.064 211.201 285.196 210.966 285.431C210.731 285.667 210.599 285.986 210.599 286.319C210.599 286.651 210.731 286.971 210.966 287.206C211.201 287.441 211.52 287.573 211.853 287.573Z" fill="white"/>
<path d="M763.282 487.33H753.001L748.11 447.642L763.284 447.643L763.282 487.33Z" fill="#A0616A"/>
<path d="M765.904 497.303L732.753 497.302V496.882C732.753 493.458 734.113 490.173 736.533 487.752C738.952 485.33 742.234 483.97 745.656 483.969L751.713 479.372L763.011 483.97L765.905 483.97L765.904 497.303Z" fill="#2F2E41"/>
<path d="M715.517 487.33H705.236L700.345 447.642L715.519 447.643L715.517 487.33Z" fill="#A0616A"/>
<path d="M718.139 497.303L684.987 497.302V496.882C684.988 493.458 686.347 490.173 688.767 487.752C691.187 485.33 694.469 483.97 697.891 483.969H697.892L703.947 479.372L715.245 483.97L718.139 483.97L718.139 497.303Z" fill="#2F2E41"/>
<path d="M771.466 233.239L757.874 275.065L715.025 273.659L728.192 233.239H771.466Z" fill="#2F2E41"/>
<path d="M707.298 270.144L788.078 272.253L786.673 311.619C786.673 311.619 788.078 322.163 785.268 324.975C782.459 327.787 781.054 327.787 782.459 332.708C783.864 337.629 776.441 345.666 777.343 346.568C778.244 347.47 780.351 352.391 780.351 352.391L773.327 392.46C773.327 392.46 768.41 462.053 767.005 463.459C765.6 464.865 764.195 463.459 765.6 466.974C767.005 470.489 768.41 469.083 767.005 470.489C765.761 471.832 764.588 473.239 763.493 474.706H746.51C746.51 474.706 745.23 467.677 745.23 466.974C745.23 466.271 743.825 462.053 743.825 461.35C743.825 460.647 745.067 459.405 745.067 459.405C745.496 457.976 745.786 456.508 745.932 455.023C745.932 453.618 750.147 399.489 750.147 399.489L741.718 329.193L721.347 398.083C721.347 398.083 721.347 458.538 719.942 459.944C718.537 461.35 718.537 460.647 719.24 463.459C719.942 466.271 722.752 465.568 720.645 467.677C718.537 469.786 717.835 466.271 718.537 469.786L719.24 473.301L698.167 473.602C698.167 473.602 695.357 467.677 696.762 465.568C698.167 463.459 698.083 464.035 696.369 460.584C694.655 457.132 693.952 456.429 694.655 455.726C695.357 455.024 695.357 451.285 695.357 451.285L698.869 384.024C698.869 384.024 699.572 313.025 699.572 310.916C699.625 309.831 699.425 308.748 698.988 307.754V304.891L701.679 294.748L707.298 270.144Z" fill="#2F2E41"/>
<path d="M714.674 167.863L739.259 158.724L780 161.536L789.434 165.942C792.752 167.491 795.453 170.112 797.103 173.384C798.753 176.655 799.256 180.386 798.531 183.978L786.322 244.486L789.479 273.599C789.479 273.599 738.206 312.322 698.167 300.372C698.167 300.372 698.869 289.124 699.572 284.906C700.274 280.689 701.679 280.689 702.382 278.58C703.084 276.471 704.489 278.58 703.084 274.362C701.679 270.144 714.323 240.62 714.323 240.62L714.674 167.863Z" fill="#61CCFF"/>
<path d="M753.534 173.211L773.576 161.093L767.006 149.235H745.714L737.28 159.46L753.534 173.211Z" fill="#61CCFF"/>
<path d="M760.43 272.851C761.574 272.917 762.72 272.731 763.785 272.306C764.85 271.881 765.809 271.228 766.595 270.392C767.381 269.556 767.974 268.558 768.332 267.468C768.69 266.378 768.806 265.222 768.67 264.083L793.734 251.876L781.272 244.486L759.381 257.211C757.483 257.567 755.782 258.607 754.599 260.134C753.417 261.661 752.835 263.569 752.964 265.497C753.093 267.425 753.925 269.238 755.301 270.594C756.676 271.949 758.501 272.752 760.43 272.851Z" fill="#A0616A"/>
<path d="M770.277 267.783L765.91 251.759L789.707 220.209C782.004 210.915 779.301 197.192 781.202 177.07C780.781 174.899 781.198 172.65 782.37 170.776C783.541 168.902 785.379 167.542 787.513 166.971C789.647 166.4 791.918 166.66 793.868 167.7C795.818 168.739 797.301 170.479 798.019 172.57C803.403 188.287 812.771 222.112 811.551 223.944C810.146 226.053 809.664 226.99 811.874 229.005C814.494 231.394 813.104 241.576 811.909 243.037C810.819 244.368 770.277 267.783 770.277 267.783Z" fill="#61CCFF"/>
<path d="M644.292 247.962C645.362 248.376 646.509 248.551 647.653 248.474C648.797 248.397 649.91 248.069 650.914 247.515C651.918 246.96 652.789 246.192 653.464 245.265C654.139 244.337 654.603 243.273 654.823 242.147L682.421 238.224L672.825 227.365L648.089 232.755C646.174 232.511 644.236 232.978 642.642 234.068C641.048 235.159 639.909 236.796 639.441 238.671C638.973 240.545 639.209 242.526 640.103 244.239C640.997 245.951 642.488 247.276 644.292 247.962Z" fill="#A0616A"/>
<path d="M656.134 245.653L660.324 229.581L695.019 210.02C697.526 194.125 699.098 188.943 710.763 172.443C711.478 170.351 712.96 168.609 714.908 167.568C716.857 166.527 719.128 166.264 721.262 166.833C723.397 167.402 725.237 168.76 726.41 170.633C727.583 172.506 728.003 174.755 727.584 176.925C724.43 193.238 710.157 236.956 708.393 237.627C706.786 238.238 656.134 245.653 656.134 245.653Z" fill="#61CCFF"/>
<path d="M756.118 141.853C768.144 141.853 777.893 132.097 777.893 120.062C777.893 108.026 768.144 98.2697 756.118 98.2697C744.091 98.2697 734.342 108.026 734.342 120.062C734.342 132.097 744.091 141.853 756.118 141.853Z" fill="#A0616A"/>
<path d="M733.058 104.253C733.637 99.041 741.159 93.8292 754.468 90.3547C767.777 86.8801 774.721 101.936 774.721 101.936C783.98 106.569 778.483 131.181 775.589 128.864C775.56 128.841 775.531 128.818 775.503 128.797C773.616 127.406 772.032 125.645 770.848 123.621C769.664 121.597 768.905 119.353 768.617 117.026L767.951 111.028C764.903 113.366 761.468 115.345 757.781 114.757L762.294 110.31C758.016 112.172 753.739 114.035 749.462 115.897L753.71 110.048L753.509 109.85C751.52 111.528 749.238 112.822 746.777 113.665C743.97 114.47 740.607 114.034 738.684 111.836C738.166 111.229 737.775 110.524 737.534 109.764C734.042 112.157 733.348 117.282 733.348 117.282C733.348 117.282 732.48 109.465 733.058 104.253Z" fill="#2F2E41"/>
<path d="M645.685 262.114H621.848C620.537 262.114 619.271 261.639 618.281 260.779C617.291 259.918 616.645 258.729 616.461 257.43C614.989 246.591 614.989 235.603 616.461 224.764C616.643 223.481 617.276 222.304 618.247 221.446C619.217 220.588 620.462 220.104 621.757 220.081C629.257 216.717 637.333 216.717 645.767 220.08C646.552 220.091 647.326 220.273 648.033 220.615C648.741 220.956 649.365 221.448 649.862 222.057C650.381 222.69 650.752 223.431 650.948 224.225C651.145 225.02 651.162 225.848 650.999 226.65C649.084 236.186 649.084 246.008 650.999 255.544C651.162 256.346 651.145 257.175 650.948 257.969C650.752 258.764 650.381 259.504 649.862 260.137C649.356 260.757 648.719 261.256 647.996 261.598C647.274 261.94 646.484 262.116 645.685 262.114Z" fill="#3F3D56"/>
<path d="M643.188 232.535H623.126C622.793 232.535 622.475 232.402 622.239 232.167C622.004 231.932 621.872 231.613 621.872 231.28C621.872 230.947 622.004 230.628 622.239 230.392C622.475 230.157 622.793 230.025 623.126 230.025H643.188C643.521 230.025 643.84 230.157 644.075 230.392C644.31 230.628 644.442 230.947 644.442 231.28C644.442 231.613 644.31 231.932 644.075 232.167C643.84 232.402 643.521 232.535 643.188 232.535Z" fill="white"/>
<path d="M643.188 242.573H623.126C622.793 242.573 622.475 242.441 622.239 242.206C622.004 241.97 621.872 241.651 621.872 241.318C621.872 240.986 622.004 240.666 622.239 240.431C622.475 240.196 622.793 240.064 623.126 240.064H643.188C643.521 240.064 643.84 240.196 644.075 240.431C644.31 240.666 644.442 240.986 644.442 241.318C644.442 241.651 644.31 241.97 644.075 242.206C643.84 242.441 643.521 242.573 643.188 242.573Z" fill="white"/>
<path d="M643.188 252.612H623.126C622.793 252.612 622.475 252.48 622.239 252.245C622.004 252.009 621.872 251.69 621.872 251.357C621.872 251.024 622.004 250.705 622.239 250.47C622.475 250.235 622.793 250.102 623.126 250.102H643.188C643.521 250.102 643.84 250.235 644.075 250.47C644.31 250.705 644.442 251.024 644.442 251.357C644.442 251.69 644.31 252.009 644.075 252.245C643.84 252.48 643.521 252.612 643.188 252.612Z" fill="white"/>
<path d="M543.715 60.9371C552.487 60.9371 559.597 53.8208 559.597 45.0424C559.597 36.264 552.487 29.1477 543.715 29.1477C534.943 29.1477 527.832 36.264 527.832 45.0424C527.832 53.8208 534.943 60.9371 543.715 60.9371Z" fill="#E6E6E6"/>
<path d="M551.868 38.4181C551.629 38.19 551.312 38.0627 550.981 38.0627C550.651 38.0627 550.334 38.19 550.095 38.4181C546.725 41.108 543.698 44.2021 541.082 47.631C540.44 46.3876 539.798 45.1441 539.155 43.9006C538.414 42.4653 536.249 43.7332 536.99 45.1673C537.929 46.9861 538.869 48.8049 539.808 50.6237C539.921 50.8093 540.08 50.9628 540.27 51.0692C540.459 51.1757 540.673 51.2316 540.891 51.2316C541.108 51.2316 541.322 51.1757 541.511 51.0692C541.701 50.9628 541.86 50.8093 541.973 50.6237C544.761 46.6948 548.092 43.1827 551.868 40.1927C552.101 39.9564 552.232 39.6376 552.232 39.3054C552.232 38.9732 552.101 38.6544 551.868 38.4181Z" fill="white"/>
<path d="M465.973 60.9371C474.745 60.9371 481.856 53.8208 481.856 45.0424C481.856 36.264 474.745 29.1477 465.973 29.1477C457.201 29.1477 450.09 36.264 450.09 45.0424C450.09 53.8208 457.201 60.9371 465.973 60.9371Z" fill="#E6E6E6"/>
<path d="M474.126 38.4181C473.887 38.19 473.57 38.0627 473.24 38.0627C472.909 38.0627 472.592 38.19 472.353 38.4181C468.983 41.108 465.956 44.2021 463.34 47.631C462.698 46.3876 462.056 45.1441 461.414 43.9006C460.673 42.4653 458.508 43.7332 459.248 45.1673C460.188 46.9861 461.127 48.8049 462.066 50.6237C462.179 50.8093 462.338 50.9628 462.528 51.0692C462.718 51.1757 462.931 51.2316 463.149 51.2316C463.366 51.2316 463.58 51.1757 463.77 51.0692C463.959 50.9628 464.118 50.8093 464.232 50.6237C467.019 46.6948 470.351 43.1827 474.126 40.1927C474.36 39.9564 474.49 39.6376 474.49 39.3054C474.49 38.9732 474.36 38.6544 474.126 38.4181Z" fill="white"/>
<path d="M302.131 59.264C310.903 59.264 318.013 52.1477 318.013 43.3693C318.013 34.5909 310.903 27.4746 302.131 27.4746C293.359 27.4746 286.248 34.5909 286.248 43.3693C286.248 52.1477 293.359 59.264 302.131 59.264Z" fill="#E6E6E6"/>
<path d="M310.284 36.7449C310.045 36.5168 309.728 36.3895 309.397 36.3895C309.067 36.3895 308.75 36.5168 308.511 36.7449C305.141 39.4347 302.114 42.5289 299.498 45.9578C298.856 44.7144 298.214 43.4709 297.571 42.2274C296.83 40.7921 294.665 42.06 295.406 43.4941C296.345 45.3129 297.285 47.1317 298.224 48.9504C298.337 49.1361 298.496 49.2895 298.686 49.396C298.875 49.5024 299.089 49.5584 299.307 49.5584C299.524 49.5584 299.738 49.5024 299.927 49.396C300.117 49.2895 300.276 49.1361 300.389 48.9504C303.177 45.0216 306.508 41.5095 310.284 38.5195C310.517 38.2832 310.648 37.9644 310.648 37.6322C310.648 37.3 310.517 36.9812 310.284 36.7449Z" fill="white"/>
<path d="M112.374 124.516C118.376 124.516 123.241 119.647 123.241 113.641C123.241 107.634 118.376 102.765 112.374 102.765C106.372 102.765 101.507 107.634 101.507 113.641C101.507 119.647 106.372 124.516 112.374 124.516Z" fill="#2F2E41"/>
<path d="M236.293 497.004C236.293 497.135 236.268 497.265 236.218 497.386C236.168 497.507 236.095 497.617 236.002 497.709C235.91 497.802 235.8 497.875 235.679 497.925C235.558 497.975 235.429 498 235.298 498H0.994761C0.730935 498 0.47791 497.895 0.291357 497.708C0.104803 497.522 0 497.268 0 497.004C0 496.74 0.104803 496.487 0.291357 496.301C0.47791 496.114 0.730935 496.009 0.994761 496.009H235.298C235.429 496.009 235.558 496.034 235.679 496.084C235.8 496.134 235.91 496.207 236.002 496.3C236.095 496.392 236.168 496.502 236.218 496.623C236.268 496.744 236.293 496.874 236.293 497.004Z" fill="#CCCCCC"/>
<path d="M839 497.004C839 497.135 838.975 497.265 838.925 497.386C838.875 497.507 838.802 497.617 838.709 497.709C838.617 497.802 838.507 497.875 838.386 497.925C838.265 497.975 838.136 498 838.005 498H603.702C603.438 498 603.185 497.895 602.998 497.708C602.812 497.522 602.707 497.268 602.707 497.004C602.707 496.74 602.812 496.487 602.998 496.301C603.185 496.114 603.438 496.009 603.702 496.009H838.005C838.136 496.009 838.265 496.034 838.386 496.084C838.507 496.134 838.617 496.207 838.709 496.3C838.802 496.392 838.875 496.502 838.925 496.623C838.975 496.744 839 496.874 839 497.004Z" fill="#CCCCCC"/>
<path d="M109.101 102.733C107.22 102.209 105.264 103.086 103.508 103.941L97.2632 106.982C101.587 107.362 105.91 107.741 110.233 108.121L110.711 107.221C112.207 105.966 110.982 103.256 109.101 102.733Z" fill="#2F2E41"/>
</g>
<defs>
<clipPath id="clip0_1_8298">
<rect width="839" height="498" fill="white"/>
</clipPath>
</defs>
</svg>
